<svg version="1.2" xmlns="http://www.w3.org/2000/svg" viewBox="0 0 2501 501" width="2501" height="501">
	<title>rovers</title>
	<style>
		.s0 { fill: #fefefe } 
		.s1 { fill: #df2e38 } 
		.s2 { fill: #f2c3c5 } 
		.s3 { fill: #eb7a7f } 
		.s4 { fill: #f1a4a7 } 
		.s5 { fill: #f9d9da } 
		.s6 { fill: #e44b54 } 
		.s7 { fill: #fbefef } 
		.s8 { fill: #b9d3eb } 
		.s9 { fill: #cccccc } 
	</style>
	<g id="Background">
		<path id="Path 1" class="s0" d="m372.1 454.6c-0.5 1.4-0.9 12.4-1 24.5l-0.1 21.9c15.8-0.5 16.3-0.6 19.1-3.8 2.5-2.8 2.9-4 2.9-9.2 0-3.3-1.1-12.6-2.5-20.8-1.4-8.1-2.5-14.8-2.5-15 0-0.1-3.4-0.2-7.5-0.2-7.2 0-7.6 0.1-8.4 2.6z"/>
		<path id="Path 2" class="s1" d="m291.5 1.7c-1.1 0.2-4 1.4-6.4 2.6-2.5 1.2-6.4 4.1-8.8 6.5-2.4 2.3-4.3 4.9-4.3 5.7 0 0.8-0.4 1.5-1 1.5-0.6 0-1 0.9-1 2 0 1.1-0.4 2.2-1 2.5-0.6 0.3-1 1.7-1 3.3 0 1.5-1 5.6-2.1 9.2-1.2 3.6-2.5 7.3-3 8.3-0.5 0.9-0.9 2.6-0.9 3.7 0 1.1-0.4 2.2-1 2.5-0.6 0.3-1.1 1.4-1.1 2.5-0.1 1.1-0.5 2.8-1 3.8-0.4 0.9-1.6 3.7-2.6 6.2-1 2.4-4.2 9.2-7.2 15-3 5.8-5.9 11.5-6.5 12.7-0.6 1.3-1.4 2.3-1.8 2.3-0.5 0-0.8 0.5-0.8 1 0 0.5-1.5 3.1-3.2 5.8-1.8 2.6-3.5 4.9-3.8 5.2-0.3 0.3-1.7 2.1-3 4-1.3 1.9-2.7 3.7-3 4-0.3 0.3-2.1 2.5-4 5-1.9 2.5-7.6 8.5-12.5 13.5-5 4.9-11.5 11-14.5 13.5-3 2.5-5.7 4.7-6 5-0.3 0.3-2.1 1.7-4 3-1.9 1.4-4.4 3.3-5.5 4.2-1.1 1-2.3 1.8-2.7 1.8-0.5 0-1.4 0.5-2 1-0.7 0.6-4.1 2.8-7.5 5-3.5 2.2-6.7 4-7.3 4-0.6 0-1 0.4-1 1 0 0.6-0.8 1-1.7 1-1 0-2.9 0.9-4.3 2-1.4 1.1-3.3 2-4.2 2-1 0-1.8 0.4-1.8 1 0 0.6-0.7 1-1.5 1-0.8 0-2.3 0.4-3.2 0.9-1 0.5-3 1.4-4.5 2-1.6 0.6-4 1.6-5.5 2.2-1.6 0.6-3.6 1.5-4.5 2-1 0.5-2.7 0.9-3.8 0.9-1.1 0-2.3 0.7-2.7 1.5-0.5 1 0.1 2.4 1.7 4 1.4 1.4 3.4 2.5 4.5 2.5 1.1 0 5.3 0.9 9.3 2 3.9 1.1 8.2 2.6 9.5 3.4 1.2 0.7 4.2 1.7 6.7 2 2.5 0.4 9.4 2.5 15.5 4.7 6.1 2.2 13.3 4.9 16 6.1 2.8 1.1 10.4 4.7 17 7.9 6.6 3.1 15.8 7.9 20.5 10.5 4.7 2.7 10.6 6.3 13.3 8.1 2.6 1.8 5 3.3 5.5 3.3 0.4 0 3 1.7 5.7 3.8 2.8 2.1 6.2 4.5 7.8 5.5 2.2 1.4 2.9 1.5 4 0.4 0.6-0.7 2.8-2.4 4.7-3.7 1.9-1.3 4.6-3.6 6-5 1.4-1.4 4.3-3.8 6.5-5.5 2.2-1.6 10.5-9.5 18.5-17.5 8-8 16.5-17 19-20 2.5-3 5.2-6.2 6-7 0.9-0.8 2.7-3.1 4-5 1.3-1.9 2.7-3.7 3-4 0.4-0.3 2.6-3.4 5-7 2.4-3.6 5-7.1 5.7-7.7 0.7-0.7 1.3-1.6 1.3-2 0-0.5 1.1-2.1 2.5-3.8 1.4-1.7 2.5-3.3 2.5-3.7 0-0.5 1.8-3.7 4-7.3 2.2-3.6 4-6.9 4-7.5 0-0.6 0.4-1.1 0.8-1.2 0.4-0.2 3.6-6.1 7.1-13.3 3.5-7.2 6.8-14.1 7.3-15.5 0.6-1.4 1.4-3.3 1.9-4.2 0.5-1 0.9-2.5 0.9-3.3 0-0.8 0.3-1.5 0.8-1.5 0.4 0 1.4-2.3 2.2-5.1 0.8-2.8 1.8-5.3 2.3-5.5 0.4-0.2 0.7-1.3 0.7-2.4 0-1.1 0.4-2.9 1-4 0.6-1.1 1.4-2.9 2-4 0.6-1.1 1-3.1 1-4.5 0-1.4 0.4-2.7 1-3 0.6-0.3 1-1.8 1-3.5 0-1.7 0.4-3.2 1-3.5 0.6-0.3 1.2-2 1.4-3.7 0.3-1.8 1-5.3 1.6-7.8 0.6-2.5 1.6-6.7 2.1-9.5 0.6-2.7 1.3-7.2 1.6-10 0.2-2.7 0.9-5.5 1.4-6 0.5-0.5 0.9-3.1 0.9-5.7 0-2.7 0.5-6.7 1.2-9 0.9-3.5 0.9-4.9-0.3-7.7-0.8-1.9-2.6-4.5-4.1-5.8l-2.8-2.3c-71.7 0.2-93.4 0.4-94.5 0.7zm-202.2 196.1c-2.2 2-5.3 6-6.9 8.7l-2.9 5v78.1c3.9 7.5 6.5 11.3 8.3 13.3l3.3 3.6c6.7-6.8 6.9-7.5 7.9-18 0.7-6.9 0.9-20.3 0.6-36-0.4-13.7-0.9-32-1.2-40.5-0.3-9.8-1-16-1.7-16.8-0.7-0.7-1.7-1.3-2.3-1.2-0.6 0-2.9 1.7-5.1 3.8z"/>
		<path id="Path 3" class="s2" d="m260.7 256.8c-0.8 0.9-2 3.7-2.7 6.2-1 3.4-1.5 21.3-2 74.5-0.4 49.9-1 71.1-1.8 73.7-0.7 2.1-2.5 4.9-4.2 6.3l-3 2.5c7.7 15.9 11.5 25 13.5 30.5 2 5.5 4.8 14.5 6.2 20 1.3 5.5 3.3 11.6 4.3 13.5 1 1.9 3.8 5.4 6.2 7.7 2.4 2.3 6.3 5.1 8.8 6.1 2.5 1.1 5.9 2.2 7.5 2.5l3 0.5v-195.9l10.5-9.9c-21.3-20.6-30.9-29.3-35-32.6-4.1-3.3-8-6.3-8.6-6.7-0.7-0.4-1.8 0.1-2.7 1.1z"/>
		<path id="Path 4" class="s3" d="m149.2 204.1c-0.1 3-0.8 6.3-1.7 7.4-1.2 1.7-1.4 10.1-1.5 58.3v56.2c8.9 4.4 13.8 7 16.5 8.5 2.8 1.5 7.5 4.4 10.5 6.3 3 2 8 5.4 11 7.6 3 2.2 6.7 5.1 8.2 6.5l2.8 2.6c5.8-6.9 7.9-9.8 8.5-10.9 0.5-1.2 1.2-26 1.5-57.1 0.5-36.3 1.1-56.4 1.8-59 0.6-2.2 1.2-5.3 1.2-7 0-2.8-0.5-3.3-8.7-7.1-4.9-2.2-11-5-13.8-6.2-2.7-1.2-9.9-3.9-16-6.1-6-2.3-13.1-4.4-15.6-4.7l-4.6-0.7z"/>
		<path id="Path 5" class="s4" d="m207 228.3c-0.9 5.1-1.5 22.7-1.9 61.7-0.4 30-1.1 55.4-1.6 56.5-0.4 1.1-2.3 3.7-4.2 5.7-1.8 2.1-3.3 4.1-3.3 4.5-0.1 0.5 3.8 4.4 8.6 8.8 4.8 4.4 12.3 12.3 16.7 17.5 4.3 5.2 11.4 14.7 15.6 21 4.3 6.3 8 12.3 8.4 13.2 0.4 1 1.3 1.8 2 1.8 0.6 0 2.2-1 3.4-2.2 1.3-1.3 2.8-3.9 3.5-5.8 0.9-2.6 1.4-22.3 1.8-73.5 0.5-53.2 1-71.1 2-74.5 0.7-2.5 1.9-5.3 2.6-6.3 0.8-0.9 1.2-2 1-2.5-0.2-0.4-2.3-2-4.7-3.7-2.4-1.6-6.6-4.7-9.4-6.7-2.7-2.1-5.3-3.8-5.7-3.8-0.5 0-2.9-1.5-5.5-3.3-2.7-1.8-7.7-4.9-11.3-6.9-3.6-2-8.6-4.8-11.2-6.2-2.7-1.4-4.9-2.6-5.1-2.6-0.2 0-0.9 3.3-1.7 7.2z"/>
		<path id="Path 6" class="s5" d="m301 300.5l-4.5 4.6c-0.5 146.8-0.3 190.9 0 192.7l0.5 3.2h37c0.2-117.1 0.6-141.6 1.4-146l1.1-6.5 9.5-1c-13.1-19.4-20.2-29.1-24.2-34.1-4-5-9-11-11.1-13.3-2-2.2-4.1-4.1-4.5-4.1-0.4 0-2.8 2-5.2 4.5z"/>
		<path id="Path 7" class="s6" d="m116.5 187c-0.3 0.6-2 1-3.8 1-1.7 0-3.5 0.4-4 1-0.4 0.6-2.3 1-4.2 1-1.9 0-3.8 0.4-4.1 1-0.3 0.6-1.4 1-2.5 1-1 0-1.9 0.6-1.9 1.3 0 0.6 0.4 1.6 0.9 2.2 0.6 0.6 1.2 8 1.5 16.5 0.3 8.5 0.8 26.8 1.2 40.5 0.3 15.9 0.1 29-0.6 36-1 10.3-1.3 11.2-4.3 14.3l-3.2 3.4c3.8 2.6 6.3 3.8 7.9 4.3 1.7 0.6 5.8 1.7 9.1 2.4 3.3 0.7 6.9 1.6 8 2.1 1.1 0.4 3.8 1.3 6 1.9 2.2 0.7 5.1 1.7 6.5 2.3 1.4 0.6 3.3 1.4 4.3 1.9 0.9 0.5 2.1 0.9 2.7 0.9 0.6 0 2.9 0.9 5.3 2 2.3 1.1 4.3 2 4.4 2 0.2 0 0.3-25.3 0.3-56.3 0.1-48.1 0.3-56.5 1.5-58.2 1-1.2 1.5-4.2 1.5-7.8 0-5.5-0.1-5.8-3.3-7.1-1.7-0.8-5.9-2.1-9.2-3-3.3-0.9-7-1.6-8.3-1.6-1.2 0-3.3-1.3-4.7-3-1.4-1.7-3.4-3-4.5-3-1 0-2.1 0.4-2.5 1z"/>
		<path id="Path 8" class="s7" d="m336.6 349.2c-0.3 0.7-1 4.2-1.6 7.8-0.6 3.9-1 33.5-1 75.3v68.7h37c0-34.3 0.4-45.1 1-46.5 0.9-2.3 1.5-2.5 8-2.5 6 0 7-0.2 7-1.7 0-1-1.6-7.7-3.4-14.8-1.9-7.1-5.3-17.9-7.5-24-2.2-6-5-13.5-6.1-16.5-1.2-3-5-11.4-8.5-18.5-3.5-7.1-8.3-16.4-10.7-20.5l-4.3-7.5c-7.9-0.5-9.6-0.2-9.9 0.7z"/>
		<path id="Path 9" class="s8" d="m833 0.7c305.5 0.2 805.9 0.2 1112 0 306.1-0.1 56.1-0.2-555.5-0.2-611.6 0-862 0.1-556.5 0.2z"/>
		<path id="Path 10" class="s0" d="m859.5 136.7c-1.6 0.2-6.1 1-10 1.9-3.9 0.8-9.9 2.4-13.5 3.6-3.6 1.1-9.4 3.5-13 5.3-3.6 1.8-9.2 5.1-12.5 7.4-3.3 2.2-9.3 7.3-13.3 11.3-4.1 4-9.3 10.2-11.7 13.8-2.3 3.6-5.4 8.9-6.9 11.8-1.4 2.8-3.7 8.5-5.1 12.5-1.3 3.9-3.1 10.4-4 14.2-1.1 4.7-1.8 13.9-2.2 28.5-0.4 17.5-0.2 23.2 1.1 30.5 1 4.9 2.6 12.1 3.8 16 1.1 3.9 3.6 10.4 5.6 14.5 1.9 4.1 5.3 10.2 7.5 13.5 2.2 3.3 7.5 9.5 11.6 13.8 4.2 4.3 10.7 9.9 14.6 12.5 3.9 2.5 10.1 6.1 14 7.8 3.9 1.8 10.8 4.4 15.5 5.7 4.7 1.4 13.2 3.1 19 3.7 6.7 0.8 16.8 1.1 28 0.7 10.3-0.4 20.4-1.3 24.5-2.2 3.9-0.9 10.3-2.7 14.3-4 3.9-1.4 10-3.9 13.5-5.6 3.4-1.8 8.9-5.1 12.2-7.4 3.3-2.4 9.2-7.6 13.1-11.7 3.9-4 9-10.2 11.4-13.8 2.4-3.6 5.8-9.6 7.6-13.5 1.8-3.9 4.4-11.1 5.7-16 1.4-4.9 3-13.5 3.7-19 0.8-6.5 1.1-16.4 0.7-28.5-0.4-15.8-0.9-20-3.2-29-1.5-5.8-4.3-14.1-6.1-18.5-1.8-4.4-5.3-10.9-7.6-14.4-2.4-3.5-5-7.3-5.8-8.5-0.7-1.2-4.8-5.2-9-9-4.1-3.7-8.9-7.9-10.5-9.2-1.6-1.4-6.8-4.4-11.5-6.8-4.7-2.4-12.1-5.5-16.5-6.9-4.4-1.4-12.3-3.2-17.5-4.1-6.6-1.1-14.8-1.6-27-1.5-9.6 0.1-18.9 0.4-20.5 0.6zm897 1.3c-5 1.1-12.2 3.2-16 4.7-3.8 1.5-9.5 4.4-12.5 6.4-3 2-8 6.3-11 9.5-3.2 3.4-7.2 9.1-9.3 13.4-2 4.1-4.4 10.8-5.2 14.8-0.8 3.9-1.5 11.8-1.5 17.5 0 7.1 0.6 12.6 2 18.2 1.2 4.4 3.3 10.3 4.8 13 1.5 2.8 5.6 8 9.2 11.6 3.7 3.7 9.5 8.2 13.5 10.4 3.8 2.2 11.3 5.4 16.5 7.1 5.2 1.8 17.2 4.9 26.5 6.9 9.3 2 20.8 4.8 25.5 6.3 4.7 1.4 10.5 4 13 5.8 2.5 1.7 5.4 4.6 6.5 6.5 1.5 2.5 2 5.2 2 10.5 0 6.2-0.4 7.6-3 11.4-1.7 2.3-4.8 5.3-7 6.6-2.2 1.3-6.9 3.1-10.5 4-4.6 1.3-10.2 1.8-19 1.7-7.5 0-15.9-0.7-21-1.7-4.7-0.9-11.9-2.6-16-3.7-4.1-1.2-11.8-3.8-17-5.9-5.2-2-11.5-4.7-14-5.9-2.5-1.2-5.6-2.1-7-1.9l-2.5 0.3c-0.5 39.2-0.3 44.2 0.7 45.1 0.7 0.6 4.9 2.3 9.3 3.7 4.4 1.5 13.6 4 20.5 5.6 6.9 1.6 16.3 3.5 21 4.2 5.6 0.9 17.1 1.4 34 1.3 24.4 0 25.9-0.1 35.5-2.7 5.5-1.5 13.6-4.4 18-6.6 4.4-2.2 10.5-6.2 13.5-8.9 3-2.6 7.4-7.8 9.8-11.5 2.3-3.7 5.1-9.3 6.1-12.4 1.1-3.2 2.5-8.9 3.2-12.8 0.7-4.3 1-12.2 0.7-20.5-0.4-10.6-1-14.9-2.8-20-1.3-3.6-4.1-9.2-6.3-12.5-2.2-3.4-6.5-8-10.1-10.7-3.3-2.6-9.7-6.4-14.1-8.4-4.4-2-12.5-5-18-6.6-5.5-1.6-17-4.3-25.5-5.9-8.5-1.7-18.2-3.7-21.5-4.5-3.3-0.9-8.7-2.8-12-4.2-3.3-1.5-7-3.8-8.2-5.2-1.2-1.4-2.8-4.1-3.4-6-0.6-1.9-1-5.5-0.8-8 0.3-2.6 1.6-6.3 3.2-8.7 2-3.2 4.3-5 8.9-7.3 4.2-1.9 9.4-3.3 15.3-4.1 5.2-0.7 13-0.9 18.5-0.5 5.2 0.3 13.1 1.3 17.5 2.1 4.4 0.9 10.7 2.3 14 3.1 3.3 0.9 10.8 3.3 16.8 5.5 8.2 3 11.2 3.7 12.7 2.9 1.9-1 2-2 2-22 0-20.7 0-21-2.3-22.4-1.2-0.8-7.6-2.6-14.2-4-6.6-1.4-16.5-3.3-22-4.2-6.5-1.1-18.4-1.8-34-2-21.1-0.3-25.1-0.1-33 1.6zm-1204 3.3c-0.3 0.6-0.4 50.5-0.3 110.7l0.3 109.5c47.2 0.4 54.3 0.2 55.3-0.8 1-0.9 1.3-9 1.2-37.4 0-34.1 0.1-36.3 1.8-35.7 0.9 0.3 4.4 1.2 7.7 2 3.3 0.9 9.6 3.2 14 5.3 4.4 2 10 5.1 12.5 6.8 2.5 1.6 7.4 5.7 10.9 8.9 3.5 3.2 8.3 8.4 10.6 11.4 2.3 3 5.6 8 7.3 11 1.6 3 4.2 9.3 5.8 14 1.5 4.7 3.6 9.5 4.8 10.8 1.2 1.2 3.2 2.7 4.6 3.2 1.5 0.6 10.7 0.9 22.4 0.8 17.6-0.3 20-0.5 21-2 0.8-1.3 0.7-3.8-0.3-9.5-0.7-4.3-2.4-11.4-3.7-15.8-1.3-4.4-4.9-13.2-8.1-19.5-3.1-6.3-6.6-12.9-7.7-14.5-1.2-1.7-3.5-4.8-5.1-7-1.6-2.2-5.9-7.1-9.5-10.9-3.6-3.8-10.4-10-15.2-13.7-8.1-6.4-8.6-7-6.5-7.8 1.2-0.5 4.7-1.9 7.7-3.1 3-1.2 9-4.3 13.4-6.8 4.3-2.6 9.9-7 12.5-9.7 2.5-2.8 6.1-8.1 7.9-11.8 1.7-3.7 3.9-9.9 4.7-13.7 0.8-3.8 1.5-10.9 1.5-15.7 0-4.9-0.7-12-1.5-15.8-0.8-3.8-2.9-9.9-4.7-13.5-1.9-3.9-5.4-8.7-8.7-12-3.7-3.6-8.4-6.8-13.6-9.4-4.4-2.1-11.1-4.6-15-5.6-3.9-1-10.5-2.3-14.8-2.9-4.8-0.7-27.5-1.1-60.2-1.1-41.1 0-52.7 0.3-53 1.3zm453-0.6c-0.5 0.3-0.8 1.5-0.7 2.5 0.1 1 3.8 11.6 8.3 23.6 4.5 11.9 12.9 34.8 18.9 50.7 5.9 15.9 20.1 54.4 31.5 85.5 11.5 31.1 21.3 57.1 21.9 57.8 0.9 1 8.1 1.2 35.1 1l34-0.3c11-30.2 29.2-79.2 47.4-128.3 19.5-52.5 32.9-90 32.6-91.2-0.5-1.9-1.3-2-28-2-25.2 0-27.6 0.1-28.4 1.8-0.5 0.9-4.1 10.5-7.9 21.2-3.9 10.7-12.3 34.1-18.7 52-6.4 17.9-13.9 38.8-16.6 46.5-2.8 7.7-7.2 20-9.7 27.2-2.6 7.3-4.9 13.3-5.2 13.3-0.3 0-1-1.4-1.6-3.2-0.7-1.8-7.1-19.7-14.4-39.8-7.2-20.1-16.9-47.1-21.5-60-4.7-12.9-11.3-31.4-14.8-41l-6.2-17.5c-42.7-0.4-55.5-0.2-56 0.2zm266.4 1.2c-0.8 1.4-1.1 31.4-1 109 0.1 69.2 0.5 107.8 1.1 109.1 1 2 2 2 78.3 2 60.5 0 77.6-0.3 78.5-1.2 0.9-0.9 1.2-6.6 1.2-19.8 0-14.5-0.3-18.9-1.4-20.5-1.4-1.9-2.9-2-50.3-2.5l-48.8-0.5c-0.4-41-0.1-47.3 0.8-48.3 0.9-1 10.2-1.3 44-1.2 23.5 0 43.4-0.2 44.2-0.5 1.3-0.4 1.5-3.7 1.5-21.5 0-17.8-0.2-21.1-1.5-21.5-0.8-0.3-20.7-0.5-44.2-0.5-33.2 0-43.1-0.3-44.1-1.2-0.9-1-1.2-6.1-1.2-19.3 0-12.8 0.3-18.4 1.2-19.2 0.9-1 11.7-1.3 47.3-1.3 36.4 0.1 46.3-0.2 47.2-1.2 0.9-1 1.2-6.6 1-21.3l-0.2-20c-150.7-0.5-152.5-0.5-153.6 1.4zm212.6-1.2c-0.5 0.3-0.8 49.7-0.7 109.7 0.1 87.9 0.4 109.3 1.4 110.3 1 1 8 1.2 28.3 1l27-0.2c1-4.6 1.3-21.3 1.4-40l0.2-34c11.2 2.8 17.3 4.9 20.9 6.4 3.6 1.5 9.7 4.7 13.5 7.2 3.8 2.5 9.3 6.6 12 9.1 2.8 2.4 7.5 7.8 10.6 11.9 3.1 4.1 7 10.3 8.7 13.9 1.7 3.6 3.9 9.4 4.9 12.9 1 3.5 3 7.7 4.4 9.5l2.7 3.1c43.3 0.5 44.2 0.4 45.2-1.5 0.7-1.4 0.5-4.6-0.5-10.7-0.9-4.9-2.9-12.6-4.4-17.3-1.6-4.7-4.4-11.6-6.3-15.5-1.8-3.9-4.7-9.2-6.3-12-1.6-2.7-5.5-8.1-8.6-12-3.2-3.9-9-10.2-13.1-14.1-4-3.9-9.8-9.1-12.8-11.4-3-2.3-5.4-4.4-5.2-4.6 0.1-0.2 3.7-2 8-3.9 4.2-2 10.7-5.3 14.5-7.5 3.7-2.2 8.8-6.2 11.5-8.8 2.6-2.6 6.1-7.7 7.9-11.2 1.8-3.6 3.9-9.2 4.8-12.5 0.8-3.3 1.8-9.4 2.1-13.5 0.4-4.9 0.1-10.8-1-17-1.1-6.7-2.7-11.7-5.4-16.9-2.6-5.2-5.5-9-9.7-12.9-3.3-3-8.6-6.8-11.7-8.3-3.2-1.6-9.5-4-14-5.3-4.6-1.3-12.3-2.9-17.3-3.5-5.5-0.7-29.1-1.1-60.6-1.1-28.4 0-51.9 0.3-52.4 0.7z"/>
		<path id="Path 11" class="s9" d="m870.8 177.1c-3.2 0.5-8.6 2.2-12 3.7-3.5 1.6-8.8 5.1-11.8 7.9-3 2.7-7.4 8.1-9.6 11.9-2.3 3.8-5.1 9.8-6.3 13.4-1.3 3.6-2.9 11-3.8 16.5-1 7-1.3 14.2-1 24 0.3 7.7 1.2 17.1 2 21 0.9 3.9 2.6 9.7 3.8 13 1.2 3.3 3.8 8.5 5.7 11.5 1.9 3 5.6 7.7 8.1 10.3 2.8 2.8 7.4 6.1 11.6 8.2 4.6 2.2 9.8 3.8 15 4.5 4.4 0.6 10.5 0.9 13.5 0.5 3-0.4 8-1.3 11-2.2 3-0.8 7.8-2.7 10.5-4.3 2.8-1.5 7.3-5.2 10-8.2 2.8-2.9 6.2-7.4 7.7-9.8 1.4-2.5 4-8.6 5.6-13.5 1.7-4.9 3.6-13.5 4.3-19 0.7-6.2 1-15.1 0.6-23.5-0.3-7.4-1.3-16.4-2.2-20-0.9-3.6-2.5-8.9-3.5-11.7-1.1-2.9-3.3-7.7-4.9-10.5-1.6-2.9-5.6-7.8-8.8-10.9-3.3-3.3-8.4-6.9-11.8-8.5-3.3-1.5-8.7-3.3-12-4-3.3-0.8-8.2-1.3-11-1.2-2.7 0-7.6 0.4-10.7 0.9zm-260.2 4.3c-1.6 1.6-1.7 4.1-1.7 27.4 0 19.7 0.3 26 1.3 27 1 1 5.5 1.2 18.8 0.9 14.2-0.3 18.4-0.7 22.5-2.3 2.7-1 6.3-3.2 7.9-4.9 1.6-1.6 3.6-4.3 4.4-6 1-1.9 1.8-6.6 2-12.5 0.4-7.2 0.1-10.8-1.3-15-1.3-4.2-2.7-6.3-5.8-8.8-2.3-1.8-6.4-4-9.2-4.9-3.1-0.9-11.1-1.7-21-2-14.3-0.5-16.3-0.4-17.9 1.1zm932.4-0.3c-1.2 1.1-1.4 5.7-1.2 27.3 0.1 19.9 0.4 26.4 1.4 27.4 1 1 5.5 1.2 18.8 0.9 16.1-0.2 17.9-0.5 22.9-2.7 3-1.4 6.7-4 8.3-5.7 1.5-1.8 3.5-5.7 4.3-8.5 0.8-2.9 1.5-8 1.5-11.3 0-3.3-0.7-8.5-1.6-11.5-1.1-3.7-2.8-6.6-5.3-9-2-1.9-6.1-4.3-9.1-5.4-4.2-1.4-9.5-2-22-2.3-12.7-0.4-16.8-0.2-17.9 0.8z"/>
	</g>
</svg>